<svg width="21" height="41" viewBox="0 0 21 41" fill="none" xmlns="http://www.w3.org/2000/svg">
<path fill-rule="evenodd" clip-rule="evenodd" d="M8.88859 15.023C3.3734 10.5632 0.73792 4.56467 -0.00012207 0.35356L2.5185 2.25423C3.61301 5.79391 5.98958 10.1066 10.1462 13.4678C12.8613 15.6634 16.363 17.4747 20.8135 18.3891V21.6744C16.363 22.5888 12.8613 24.4002 10.1462 26.5957C5.05716 30.7109 2.63634 36.2524 1.96985 40.0552L-0.00012207 39.71C0.73792 35.4989 3.3734 29.5004 8.88859 25.0406C11.5762 22.8673 14.9256 21.0772 19.0333 20.0318C14.9256 18.9863 11.5762 17.1962 8.88859 15.023ZM20.8135 14.5416L2.44838 2.02263C2.23817 1.3132 2.08004 0.636991 1.96985 0.00830078L-0.00012207 0.35356L2.44838 2.02263C2.47114 2.09945 2.49451 2.17665 2.5185 2.25423L20.8135 16.0605V14.5416Z" fill="#E2E2E2"/>
</svg>
