<svg width="14" height="14" viewBox="0 0 14 14" fill="none" xmlns="http://www.w3.org/2000/svg">
<path opacity="0.4" d="M14 7C14 10.8668 10.8661 14 7 14C3.1339 14 0 10.8668 0 7C0 3.1346 3.1339 0 7 0C10.8661 0 14 3.1346 14 7Z" fill="white"/>
<path d="M9.5015 9.67005C9.4098 9.67005 9.3174 9.64625 9.2327 9.59655L6.4845 7.95715C6.3263 7.86195 6.229 7.69045 6.229 7.50565V3.97275C6.229 3.68295 6.4642 3.44775 6.754 3.44775C7.0438 3.44775 7.279 3.68295 7.279 3.97275V7.20745L9.771 8.69355C10.0195 8.84265 10.1014 9.16465 9.953 9.41385C9.8543 9.57835 9.68 9.67005 9.5015 9.67005Z" fill="white"/>
</svg>
