<svg width="61" height="60" viewBox="0 0 61 60" fill="none" xmlns="http://www.w3.org/2000/svg">
<g filter="url(#filter0_bii_1_682)">
<circle cx="30.5" cy="30" r="30" fill="white" fill-opacity="0.3"/>
<circle cx="30.5" cy="30" r="29.5" stroke="url(#paint0_linear_1_682)" stroke-opacity="0.3"/>
</g>
<path opacity="0.4" d="M31.0454 32.9233C26.3385 32.9233 22.3181 33.6654 22.3181 36.6338C22.3181 39.6033 26.3134 40.3716 31.0454 40.3716C35.7522 40.3716 39.7727 39.6306 39.7727 36.6611C39.7727 33.6916 35.7784 32.9233 31.0454 32.9233Z" fill="white"/>
<path d="M31.0455 30.0959C34.2518 30.0959 36.8208 27.5259 36.8208 24.3207C36.8208 21.1155 34.2518 18.5454 31.0455 18.5454C27.8403 18.5454 25.2703 21.1155 25.2703 24.3207C25.2703 27.5259 27.8403 30.0959 31.0455 30.0959Z" fill="white"/>
<defs>
<filter id="filter0_bii_1_682" x="-19.5" y="-20" width="100" height="100" filterUnits="userSpaceOnUse" color-interpolation-filters="sRGB">
<feFlood flood-opacity="0" result="BackgroundImageFix"/>
<feGaussianBlur in="BackgroundImageFix" stdDeviation="10"/>
<feComposite in2="SourceAlpha" operator="in" result="effect1_backgroundBlur_1_682"/>
<feBlend mode="normal" in="SourceGraphic" in2="effect1_backgroundBlur_1_682" result="shape"/>
<feColorMatrix in="SourceAlpha" type="matrix" values="0 0 0 0 0 0 0 0 0 0 0 0 0 0 0 0 0 0 127 0" result="hardAlpha"/>
<feOffset dx="2" dy="4"/>
<feGaussianBlur stdDeviation="2.5"/>
<feComposite in2="hardAlpha" operator="arithmetic" k2="-1" k3="1"/>
<feColorMatrix type="matrix" values="0 0 0 0 0.121569 0 0 0 0 0.121569 0 0 0 0 0.121569 0 0 0 0.2 0"/>
<feBlend mode="normal" in2="shape" result="effect2_innerShadow_1_682"/>
<feColorMatrix in="SourceAlpha" type="matrix" values="0 0 0 0 0 0 0 0 0 0 0 0 0 0 0 0 0 0 127 0" result="hardAlpha"/>
<feOffset dx="-4" dy="-5"/>
<feGaussianBlur stdDeviation="2.5"/>
<feComposite in2="hardAlpha" operator="arithmetic" k2="-1" k3="1"/>
<feColorMatrix type="matrix" values="0 0 0 0 0.121569 0 0 0 0 0.121569 0 0 0 0 0.121569 0 0 0 0.2 0"/>
<feBlend mode="normal" in2="effect2_innerShadow_1_682" result="effect3_innerShadow_1_682"/>
</filter>
<linearGradient id="paint0_linear_1_682" x1="11.4091" y1="7.63636" x2="52.8636" y2="52.3636" gradientUnits="userSpaceOnUse">
<stop stop-color="#F0F0F0"/>
<stop offset="1" stop-color="#9B9B9B" stop-opacity="0"/>
</linearGradient>
</defs>
</svg>
